<?xml version="1.0" standalone="no"?>
<!DOCTYPE svg PUBLIC "-//W3C//DTD SVG 20010904//EN"
 "http://www.w3.org/TR/2001/REC-SVG-20010904/DTD/svg10.dtd">
<svg version="1.0" xmlns="http://www.w3.org/2000/svg"
 width="512.000000pt" height="512.000000pt" viewBox="0 0 512.000000 512.000000"
 preserveAspectRatio="xMidYMid meet">

<g transform="translate(0.000000,512.000000) scale(0.100000,-0.100000)"
fill="#000000" stroke="none">
<path d="M2285 4675 c-536 -71 -1019 -339 -1377 -765 -147 -175 -295 -447
-372 -681 -75 -229 -106 -422 -106 -669 0 -247 31 -440 106 -669 151 -461 457
-854 879 -1131 178 -116 454 -231 675 -280 211 -47 495 -63 705 -40 382 43
751 191 1065 428 181 137 403 387 530 596 274 455 367 1019 254 1546 -66 308
-198 591 -397 855 -73 96 -265 290 -363 367 -311 245 -700 405 -1086 447 -128
14 -388 12 -513 -4z m414 -415 c602 -54 1115 -401 1385 -937 242 -481 242
-1042 0 -1524 -100 -201 -239 -383 -395 -518 -534 -463 -1269 -557 -1894 -244
-691 347 -1063 1115 -905 1870 163 781 838 1338 1650 1362 25 0 96 -4 159 -9z"/>
<path d="M2824 3253 l-691 -267 -249 -645 c-136 -355 -256 -667 -266 -693
l-18 -48 48 18 c26 10 338 130 693 267 l646 248 248 646 c136 355 256 667 266
694 10 26 18 47 16 47 -1 -1 -313 -121 -693 -267z m-150 -513 c20 -14 49 -43
64 -64 24 -35 27 -49 27 -116 0 -67 -3 -81 -27 -116 -15 -21 -44 -50 -65 -64
-31 -21 -48 -25 -113 -25 -65 0 -82 4 -113 25 -21 14 -50 43 -65 64 -24 35
-27 49 -27 117 0 70 3 81 30 120 45 64 104 91 186 87 50 -3 75 -10 103 -28z"/>
</g>
</svg>
